<mxfile host="Electron" modified="2023-06-03T17:54:53.785Z" agent="Mozilla/5.0 (Macintosh; Intel Mac OS X 10_15_7) AppleWebKit/537.36 (KHTML, like Gecko) draw.io/21.2.8 Chrome/112.0.5615.165 Electron/24.2.0 Safari/537.36" etag="_i238_3QppZ95_W3xcvB" version="21.2.8" type="device">
  <diagram name="Page-1" id="3ZNBK_6udXq8-aQKc5NF">
    <mxGraphModel dx="914" dy="597" grid="1" gridSize="10" guides="1" tooltips="1" connect="1" arrows="1" fold="1" page="1" pageScale="1" pageWidth="827" pageHeight="1169" math="0" shadow="0">
      <root>
        <mxCell id="0" />
        <mxCell id="1" parent="0" />
        <mxCell id="HktPtad1RoYpuFZ_xDtu-6" style="edgeStyle=orthogonalEdgeStyle;rounded=0;orthogonalLoop=1;jettySize=auto;html=1;entryX=0.017;entryY=0.5;entryDx=0;entryDy=0;entryPerimeter=0;" edge="1" parent="1" source="HktPtad1RoYpuFZ_xDtu-1" target="HktPtad1RoYpuFZ_xDtu-4">
          <mxGeometry relative="1" as="geometry" />
        </mxCell>
        <mxCell id="HktPtad1RoYpuFZ_xDtu-1" value="&lt;b&gt;Request&lt;br&gt;&amp;nbsp;- Put/Set/Delete&amp;nbsp;&lt;br&gt;&lt;/b&gt;" style="verticalLabelPosition=middle;verticalAlign=middle;html=1;shape=mxgraph.basic.patternFillRect;fillStyle=diag;step=5;fillStrokeWidth=0.2;fillStrokeColor=#dddddd;labelPosition=center;align=center;fillColor=#d5e8d4;strokeColor=#82b366;" vertex="1" parent="1">
          <mxGeometry x="40" y="170" width="120" height="90" as="geometry" />
        </mxCell>
        <mxCell id="HktPtad1RoYpuFZ_xDtu-19" style="edgeStyle=orthogonalEdgeStyle;rounded=0;orthogonalLoop=1;jettySize=auto;html=1;entryX=0;entryY=0.5;entryDx=0;entryDy=0;entryPerimeter=0;" edge="1" parent="1" source="HktPtad1RoYpuFZ_xDtu-4" target="HktPtad1RoYpuFZ_xDtu-18">
          <mxGeometry relative="1" as="geometry" />
        </mxCell>
        <mxCell id="HktPtad1RoYpuFZ_xDtu-4" value="Engine" style="shape=cube;whiteSpace=wrap;html=1;boundedLbl=1;backgroundOutline=1;darkOpacity=0.05;darkOpacity2=0.1;" vertex="1" parent="1">
          <mxGeometry x="260" y="170" width="120" height="90" as="geometry" />
        </mxCell>
        <mxCell id="HktPtad1RoYpuFZ_xDtu-20" style="edgeStyle=orthogonalEdgeStyle;rounded=0;orthogonalLoop=1;jettySize=auto;html=1;dashed=1;entryX=0;entryY=0.5;entryDx=0;entryDy=0;entryPerimeter=0;" edge="1" parent="1">
          <mxGeometry relative="1" as="geometry">
            <mxPoint x="729" y="215" as="targetPoint" />
            <mxPoint x="609" y="215" as="sourcePoint" />
          </mxGeometry>
        </mxCell>
        <mxCell id="HktPtad1RoYpuFZ_xDtu-25" value="LSMT reach size" style="edgeLabel;html=1;align=center;verticalAlign=middle;resizable=0;points=[];" vertex="1" connectable="0" parent="HktPtad1RoYpuFZ_xDtu-20">
          <mxGeometry x="-0.2707" y="-1" relative="1" as="geometry">
            <mxPoint as="offset" />
          </mxGeometry>
        </mxCell>
        <mxCell id="HktPtad1RoYpuFZ_xDtu-18" value="" style="verticalLabelPosition=bottom;verticalAlign=top;html=1;shape=mxgraph.basic.patternFillRect;fillStyle=diag;step=5;fillStrokeWidth=0.2;fillStrokeColor=#dddddd;" vertex="1" parent="1">
          <mxGeometry x="440" y="130" width="170" height="170" as="geometry" />
        </mxCell>
        <mxCell id="HktPtad1RoYpuFZ_xDtu-7" value="memtable" style="verticalLabelPosition=middle;verticalAlign=middle;html=1;shape=mxgraph.basic.rect;fillColor2=none;strokeWidth=1;size=20;indent=5;labelPosition=center;align=center;" vertex="1" parent="1">
          <mxGeometry x="464" y="150" width="120" height="30" as="geometry" />
        </mxCell>
        <mxCell id="HktPtad1RoYpuFZ_xDtu-13" value="bloom-filter" style="verticalLabelPosition=middle;verticalAlign=middle;html=1;shape=mxgraph.basic.rect;fillColor2=none;strokeWidth=1;size=14.5;indent=5;labelPosition=center;align=center;" vertex="1" parent="1">
          <mxGeometry x="464" y="201" width="120" height="30" as="geometry" />
        </mxCell>
        <mxCell id="HktPtad1RoYpuFZ_xDtu-17" value="sparse index" style="verticalLabelPosition=middle;verticalAlign=middle;html=1;shape=mxgraph.basic.rect;fillColor2=none;strokeWidth=1;size=14.5;indent=5;labelPosition=center;align=center;" vertex="1" parent="1">
          <mxGeometry x="464" y="250" width="120" height="30" as="geometry" />
        </mxCell>
        <mxCell id="HktPtad1RoYpuFZ_xDtu-21" value="sstables" style="strokeWidth=2;html=1;shape=mxgraph.flowchart.multi-document;whiteSpace=wrap;" vertex="1" parent="1">
          <mxGeometry x="730" y="185" width="88" height="60" as="geometry" />
        </mxCell>
        <mxCell id="HktPtad1RoYpuFZ_xDtu-22" style="edgeStyle=orthogonalEdgeStyle;rounded=0;orthogonalLoop=1;jettySize=auto;html=1;entryX=0.017;entryY=0.5;entryDx=0;entryDy=0;entryPerimeter=0;" edge="1" parent="1" source="HktPtad1RoYpuFZ_xDtu-23" target="HktPtad1RoYpuFZ_xDtu-24">
          <mxGeometry relative="1" as="geometry" />
        </mxCell>
        <mxCell id="HktPtad1RoYpuFZ_xDtu-23" value="&lt;b&gt;Request&lt;br&gt;&amp;nbsp;- Get&amp;nbsp;&lt;br&gt;&lt;/b&gt;" style="verticalLabelPosition=middle;verticalAlign=middle;html=1;shape=mxgraph.basic.patternFillRect;fillStyle=diag;step=5;fillStrokeWidth=0.2;fillStrokeColor=#dddddd;labelPosition=center;align=center;fillColor=#d5e8d4;strokeColor=#82b366;" vertex="1" parent="1">
          <mxGeometry x="40" y="400" width="120" height="90" as="geometry" />
        </mxCell>
        <mxCell id="HktPtad1RoYpuFZ_xDtu-27" style="edgeStyle=orthogonalEdgeStyle;rounded=0;orthogonalLoop=1;jettySize=auto;html=1;" edge="1" parent="1" source="HktPtad1RoYpuFZ_xDtu-24" target="HktPtad1RoYpuFZ_xDtu-26">
          <mxGeometry relative="1" as="geometry" />
        </mxCell>
        <mxCell id="HktPtad1RoYpuFZ_xDtu-24" value="Engine" style="shape=cube;whiteSpace=wrap;html=1;boundedLbl=1;backgroundOutline=1;darkOpacity=0.05;darkOpacity2=0.1;" vertex="1" parent="1">
          <mxGeometry x="260" y="330" width="120" height="90" as="geometry" />
        </mxCell>
        <mxCell id="HktPtad1RoYpuFZ_xDtu-31" style="edgeStyle=orthogonalEdgeStyle;rounded=0;orthogonalLoop=1;jettySize=auto;html=1;entryX=1;entryY=0.5;entryDx=0;entryDy=0;entryPerimeter=0;" edge="1" parent="1" source="HktPtad1RoYpuFZ_xDtu-26" target="HktPtad1RoYpuFZ_xDtu-30">
          <mxGeometry relative="1" as="geometry" />
        </mxCell>
        <mxCell id="HktPtad1RoYpuFZ_xDtu-32" value="&lt;font color=&quot;#ff0000&quot;&gt;NOT FOUND&lt;/font&gt;" style="edgeLabel;html=1;align=center;verticalAlign=middle;resizable=0;points=[];" vertex="1" connectable="0" parent="HktPtad1RoYpuFZ_xDtu-31">
          <mxGeometry x="-0.6738" y="1" relative="1" as="geometry">
            <mxPoint as="offset" />
          </mxGeometry>
        </mxCell>
        <mxCell id="HktPtad1RoYpuFZ_xDtu-35" style="edgeStyle=orthogonalEdgeStyle;rounded=0;orthogonalLoop=1;jettySize=auto;html=1;dashed=1;dashPattern=8 8;" edge="1" parent="1" source="HktPtad1RoYpuFZ_xDtu-26" target="HktPtad1RoYpuFZ_xDtu-34">
          <mxGeometry relative="1" as="geometry" />
        </mxCell>
        <mxCell id="HktPtad1RoYpuFZ_xDtu-26" value="bloom-filter" style="verticalLabelPosition=middle;verticalAlign=middle;html=1;shape=mxgraph.basic.rect;fillColor2=none;strokeWidth=1;size=14.5;indent=5;labelPosition=center;align=center;" vertex="1" parent="1">
          <mxGeometry x="410" y="440" width="120" height="30" as="geometry" />
        </mxCell>
        <mxCell id="HktPtad1RoYpuFZ_xDtu-30" value="&lt;b&gt;Response&amp;nbsp;&lt;br&gt;&lt;/b&gt;" style="verticalLabelPosition=middle;verticalAlign=middle;html=1;shape=mxgraph.basic.patternFillRect;fillStyle=diag;step=5;fillStrokeWidth=0.2;fillStrokeColor=#dddddd;labelPosition=center;align=center;fillColor=#fff2cc;strokeColor=#d6b656;" vertex="1" parent="1">
          <mxGeometry x="40" y="510" width="120" height="40" as="geometry" />
        </mxCell>
        <mxCell id="HktPtad1RoYpuFZ_xDtu-37" style="edgeStyle=orthogonalEdgeStyle;rounded=0;orthogonalLoop=1;jettySize=auto;html=1;entryX=0.5;entryY=0;entryDx=0;entryDy=0;entryPerimeter=0;" edge="1" parent="1" source="HktPtad1RoYpuFZ_xDtu-34" target="HktPtad1RoYpuFZ_xDtu-36">
          <mxGeometry relative="1" as="geometry" />
        </mxCell>
        <mxCell id="HktPtad1RoYpuFZ_xDtu-34" value="sparse index" style="verticalLabelPosition=middle;verticalAlign=middle;html=1;shape=mxgraph.basic.rect;fillColor2=none;strokeWidth=1;size=14.5;indent=5;labelPosition=center;align=center;" vertex="1" parent="1">
          <mxGeometry x="410" y="510" width="120" height="30" as="geometry" />
        </mxCell>
        <mxCell id="HktPtad1RoYpuFZ_xDtu-38" value="&lt;font color=&quot;#00ff00&quot;&gt;FOUND&lt;/font&gt; / &lt;font color=&quot;#ff0000&quot;&gt;NOT FOUND&lt;/font&gt;&amp;nbsp;" style="edgeStyle=orthogonalEdgeStyle;rounded=0;orthogonalLoop=1;jettySize=auto;html=1;entryX=1;entryY=0.5;entryDx=0;entryDy=0;entryPerimeter=0;" edge="1" parent="1" source="HktPtad1RoYpuFZ_xDtu-36" target="HktPtad1RoYpuFZ_xDtu-30">
          <mxGeometry relative="1" as="geometry" />
        </mxCell>
        <mxCell id="HktPtad1RoYpuFZ_xDtu-36" value="sstables" style="strokeWidth=2;html=1;shape=mxgraph.flowchart.multi-document;whiteSpace=wrap;" vertex="1" parent="1">
          <mxGeometry x="426" y="590" width="88" height="60" as="geometry" />
        </mxCell>
      </root>
    </mxGraphModel>
  </diagram>
</mxfile>
